<svg id="visual" viewBox="0 0 960 540" width="960" height="540" xmlns="http://www.w3.org/2000/svg" xmlns:xlink="http://www.w3.org/1999/xlink" version="1.1"><rect x="0" y="0" width="960" height="540" fill="#0e0e0e"></rect><path d="M0 333L22.8 339.5C45.7 346 91.3 359 137 363.7C182.7 368.3 228.3 364.7 274 368.2C319.7 371.7 365.3 382.3 411.2 380.2C457 378 503 363 548.8 356.8C594.7 350.7 640.3 353.3 686 347.8C731.7 342.3 777.3 328.7 823 327.7C868.7 326.7 914.3 338.3 937.2 344.2L960 350L960 541L937.2 541C914.3 541 868.7 541 823 541C777.3 541 731.7 541 686 541C640.3 541 594.7 541 548.8 541C503 541 457 541 411.2 541C365.3 541 319.7 541 274 541C228.3 541 182.7 541 137 541C91.3 541 45.7 541 22.8 541L0 541Z" fill="#ebc09d"></path><path d="M0 392L22.8 387.5C45.7 383 91.3 374 137 374.5C182.7 375 228.3 385 274 393C319.7 401 365.3 407 411.2 405.7C457 404.3 503 395.7 548.8 398C594.7 400.3 640.3 413.7 686 417C731.7 420.3 777.3 413.7 823 402C868.7 390.3 914.3 373.7 937.2 365.3L960 357L960 541L937.2 541C914.3 541 868.7 541 823 541C777.3 541 731.7 541 686 541C640.3 541 594.7 541 548.8 541C503 541 457 541 411.2 541C365.3 541 319.7 541 274 541C228.3 541 182.7 541 137 541C91.3 541 45.7 541 22.8 541L0 541Z" fill="#f2af7a"></path><path d="M0 450L22.8 449.7C45.7 449.3 91.3 448.7 137 442.8C182.7 437 228.3 426 274 418.7C319.7 411.3 365.3 407.7 411.2 415C457 422.3 503 440.7 548.8 448.7C594.7 456.7 640.3 454.3 686 450C731.7 445.7 777.3 439.3 823 430.7C868.7 422 914.3 411 937.2 405.5L960 400L960 541L937.2 541C914.3 541 868.7 541 823 541C777.3 541 731.7 541 686 541C640.3 541 594.7 541 548.8 541C503 541 457 541 411.2 541C365.3 541 319.7 541 274 541C228.3 541 182.7 541 137 541C91.3 541 45.7 541 22.8 541L0 541Z" fill="#f79d58"></path><path d="M0 438L22.8 445.2C45.7 452.3 91.3 466.7 137 468.8C182.7 471 228.3 461 274 454.3C319.7 447.7 365.3 444.3 411.2 447.8C457 451.3 503 461.7 548.8 467.3C594.7 473 640.3 474 686 475.7C731.7 477.3 777.3 479.7 823 481.2C868.7 482.7 914.3 483.3 937.2 483.7L960 484L960 541L937.2 541C914.3 541 868.7 541 823 541C777.3 541 731.7 541 686 541C640.3 541 594.7 541 548.8 541C503 541 457 541 411.2 541C365.3 541 319.7 541 274 541C228.3 541 182.7 541 137 541C91.3 541 45.7 541 22.8 541L0 541Z" fill="#fb8935"></path><path d="M0 495L22.8 497.8C45.7 500.7 91.3 506.3 137 508C182.7 509.7 228.3 507.3 274 504.7C319.7 502 365.3 499 411.2 499.7C457 500.3 503 504.7 548.8 503.7C594.7 502.7 640.3 496.3 686 496.2C731.7 496 777.3 502 823 501.5C868.7 501 914.3 494 937.2 490.5L960 487L960 541L937.2 541C914.3 541 868.7 541 823 541C777.3 541 731.7 541 686 541C640.3 541 594.7 541 548.8 541C503 541 457 541 411.2 541C365.3 541 319.7 541 274 541C228.3 541 182.7 541 137 541C91.3 541 45.7 541 22.8 541L0 541Z" fill="#ff7300"></path></svg>