<svg id="visual" viewBox="0 0 960 540" width="960" height="540" xmlns="http://www.w3.org/2000/svg" xmlns:xlink="http://www.w3.org/1999/xlink" version="1.1"><path d="M0 473L12.3 477.8C24.7 482.7 49.3 492.3 74 494.7C98.7 497 123.3 492 148 488.7C172.7 485.3 197.3 483.7 221.8 487.3C246.3 491 270.7 500 295.2 501.3C319.7 502.7 344.3 496.3 369 491.5C393.7 486.7 418.3 483.3 443 486.5C467.7 489.7 492.3 499.3 517 497.3C541.7 495.3 566.3 481.7 591 481.7C615.7 481.7 640.3 495.3 664.8 500.7C689.3 506 713.7 503 738.2 497.5C762.7 492 787.3 484 812 484.5C836.7 485 861.3 494 886 494.7C910.7 495.3 935.3 487.7 947.7 483.8L960 480L960 541L947.7 541C935.3 541 910.7 541 886 541C861.3 541 836.7 541 812 541C787.3 541 762.7 541 738.2 541C713.7 541 689.3 541 664.8 541C640.3 541 615.7 541 591 541C566.3 541 541.7 541 517 541C492.3 541 467.7 541 443 541C418.3 541 393.7 541 369 541C344.3 541 319.7 541 295.2 541C270.7 541 246.3 541 221.8 541C197.3 541 172.7 541 148 541C123.3 541 98.7 541 74 541C49.3 541 24.7 541 12.3 541L0 541Z" fill="#ff7300" stroke-linecap="round" stroke-linejoin="miter"></path></svg>