<svg id="visual" viewBox="0 0 960 540" width="960" height="540" xmlns="http://www.w3.org/2000/svg" xmlns:xlink="http://www.w3.org/1999/xlink" version="1.1"><path d="M0 404L14.5 396C29 388 58 372 87.2 363.8C116.3 355.7 145.7 355.3 174.8 369.5C204 383.7 233 412.3 262 429.8C291 447.3 320 453.7 349 437.5C378 421.3 407 382.7 436.2 380.5C465.3 378.3 494.7 412.7 523.8 429.3C553 446 582 445 611 431.2C640 417.3 669 390.7 698 394.2C727 397.7 756 431.3 785.2 445.3C814.3 459.3 843.7 453.7 872.8 448.2C902 442.7 931 437.3 945.5 434.7L960 432L960 541L945.5 541C931 541 902 541 872.8 541C843.7 541 814.3 541 785.2 541C756 541 727 541 698 541C669 541 640 541 611 541C582 541 553 541 523.8 541C494.7 541 465.3 541 436.2 541C407 541 378 541 349 541C320 541 291 541 262 541C233 541 204 541 174.8 541C145.7 541 116.3 541 87.2 541C58 541 29 541 14.5 541L0 541Z" fill="#ff7300" stroke-linecap="round" stroke-linejoin="miter"></path></svg>